<?xml version="1.0" encoding="UTF-8" standalone="no"?>
<!DOCTYPE svg PUBLIC "-//W3C//DTD SVG 1.1//EN"
 "http://www.w3.org/Graphics/SVG/1.1/DTD/svg11.dtd">
<!-- Generated by graphviz version 2.36.0 (20140111.2315)
 -->
<!-- Title: G Pages: 1 -->
<svg width="579pt" height="1376pt"
 viewBox="0.00 0.00 579.00 1376.00" xmlns="http://www.w3.org/2000/svg" xmlns:xlink="http://www.w3.org/1999/xlink">
<g id="graph0" class="graph" transform="scale(1 1) rotate(0) translate(4 1372)">
<title>G</title>
<polygon fill="white" stroke="none" points="-4,4 -4,-1372 575,-1372 575,4 -4,4"/>
<!-- n1 -->
<g id="node1" class="node"><title>n1</title>
<g id="a_node1"><a xlink:title="[./model/RNN.lua]:30_">
<ellipse fill="none" stroke="black" cx="285" cy="-506" rx="84.2187" ry="37.4533"/>
<text text-anchor="middle" x="285" y="-517.3" font-family="Times,serif" font-size="14.00">Node1</text>
<text text-anchor="start" x="233.5" y="-502.3" font-family="Times,serif" font-size="14.00">module = nn.Tanh</text>
<text text-anchor="middle" x="285" y="-487.3" font-family="Times,serif" font-size="14.00">reverseMap = {}</text>
</a>
</g>
</g>
<!-- n2 -->
<g id="node2" class="node"><title>n2</title>
<g id="a_node2"><a xlink:title="[[C]]:&#45;1_">
<ellipse fill="none" stroke="black" cx="279" cy="-48" rx="124.176" ry="48.1667"/>
<text text-anchor="middle" x="279" y="-66.8" font-family="Times,serif" font-size="14.00">Node2</text>
<text text-anchor="start" x="199" y="-51.8" font-family="Times,serif" font-size="14.00">input = {}</text>
<text text-anchor="start" x="199" y="-36.8" font-family="Times,serif" font-size="14.00">mapindex = {Node1,Node3}</text>
<text text-anchor="middle" x="279" y="-21.8" font-family="Times,serif" font-size="14.00">reverseMap = {}</text>
</a>
</g>
</g>
<!-- n1&#45;&gt;n2 -->
<g id="edge1" class="edge"><title>n1&#45;&gt;n2</title>
<path fill="none" stroke="black" d="M247.253,-472.113C236.691,-460.609 226.58,-446.828 221,-432 174.005,-307.109 192.75,-259.225 233,-132 235.982,-122.576 240.092,-113.009 244.639,-103.886"/>
<polygon fill="black" stroke="black" points="247.788,-105.417 249.306,-94.9314 241.581,-102.182 247.788,-105.417"/>
</g>
<!-- n8 -->
<g id="node8" class="node"><title>n8</title>
<g id="a_node8"><a xlink:title="[./model/RNN.lua]:36_">
<ellipse fill="none" stroke="black" cx="369" cy="-394" rx="138.389" ry="37.4533"/>
<text text-anchor="middle" x="369" y="-405.3" font-family="Times,serif" font-size="14.00">Node8</text>
<text text-anchor="start" x="279" y="-390.3" font-family="Times,serif" font-size="14.00">module = nn.Dropout(0.500000)</text>
<text text-anchor="middle" x="369" y="-375.3" font-family="Times,serif" font-size="14.00">reverseMap = {}</text>
</a>
</g>
</g>
<!-- n1&#45;&gt;n8 -->
<g id="edge10" class="edge"><title>n1&#45;&gt;n8</title>
<path fill="none" stroke="black" d="M311.578,-470.195C319.088,-460.362 327.361,-449.528 335.233,-439.219"/>
<polygon fill="black" stroke="black" points="338.15,-441.166 341.437,-431.094 332.586,-436.918 338.15,-441.166"/>
</g>
<!-- n3 -->
<g id="node3" class="node"><title>n3</title>
<g id="a_node3"><a xlink:title="[./model/RNN.lua]:38_">
<ellipse fill="none" stroke="black" cx="356" cy="-170" rx="113.267" ry="37.4533"/>
<text text-anchor="middle" x="356" y="-181.3" font-family="Times,serif" font-size="14.00">Node3</text>
<text text-anchor="start" x="283.5" y="-166.3" font-family="Times,serif" font-size="14.00">module = nn.LogSoftMax</text>
<text text-anchor="middle" x="356" y="-151.3" font-family="Times,serif" font-size="14.00">reverseMap = {}</text>
</a>
</g>
</g>
<!-- n3&#45;&gt;n2 -->
<g id="edge2" class="edge"><title>n3&#45;&gt;n2</title>
<path fill="none" stroke="black" d="M332.897,-132.996C326.936,-123.705 320.385,-113.495 313.965,-103.491"/>
<polygon fill="black" stroke="black" points="316.723,-101.308 308.376,-94.7814 310.831,-105.088 316.723,-101.308"/>
</g>
<!-- n4 -->
<g id="node4" class="node"><title>n4</title>
<g id="a_node4"><a xlink:title="[./model/RNN.lua]:30_">
<ellipse fill="none" stroke="black" cx="285" cy="-628" rx="124.176" ry="48.1667"/>
<text text-anchor="middle" x="285" y="-646.8" font-family="Times,serif" font-size="14.00">Node4</text>
<text text-anchor="start" x="205" y="-631.8" font-family="Times,serif" font-size="14.00">module = nn.CAddTable</text>
<text text-anchor="start" x="205" y="-616.8" font-family="Times,serif" font-size="14.00">reverseMap = {}</text>
<text text-anchor="middle" x="285" y="-601.8" font-family="Times,serif" font-size="14.00">mapindex = {Node6,Node7}</text>
</a>
</g>
</g>
<!-- n4&#45;&gt;n1 -->
<g id="edge3" class="edge"><title>n4&#45;&gt;n1</title>
<path fill="none" stroke="black" d="M285,-579.573C285,-571.096 285,-562.269 285,-553.81"/>
<polygon fill="black" stroke="black" points="288.5,-553.722 285,-543.722 281.5,-553.722 288.5,-553.722"/>
</g>
<!-- n5 -->
<g id="node5" class="node"><title>n5</title>
<g id="a_node5"><a xlink:title="[./model/RNN.lua]:37_">
<ellipse fill="none" stroke="black" cx="369" cy="-282" rx="138.389" ry="37.4533"/>
<text text-anchor="middle" x="369" y="-293.3" font-family="Times,serif" font-size="14.00">Node5</text>
<text text-anchor="start" x="279" y="-278.3" font-family="Times,serif" font-size="14.00">module = nn.Linear(500 &#45;&gt; 100)</text>
<text text-anchor="middle" x="369" y="-263.3" font-family="Times,serif" font-size="14.00">reverseMap = {}</text>
</a>
</g>
</g>
<!-- n5&#45;&gt;n3 -->
<g id="edge4" class="edge"><title>n5&#45;&gt;n3</title>
<path fill="none" stroke="black" d="M364.671,-244.372C363.652,-235.744 362.551,-226.435 361.488,-217.439"/>
<polygon fill="black" stroke="black" points="364.959,-216.989 360.31,-207.468 358.008,-217.81 364.959,-216.989"/>
</g>
<!-- n6 -->
<g id="node6" class="node"><title>n6</title>
<g id="a_node6"><a xlink:title="[./model/RNN.lua]:28_">
<ellipse fill="none" stroke="black" cx="433" cy="-750" rx="138.389" ry="37.4533"/>
<text text-anchor="middle" x="433" y="-761.3" font-family="Times,serif" font-size="14.00">Node6</text>
<text text-anchor="start" x="343" y="-746.3" font-family="Times,serif" font-size="14.00">module = nn.Linear(100 &#45;&gt; 500)</text>
<text text-anchor="middle" x="433" y="-731.3" font-family="Times,serif" font-size="14.00">reverseMap = {}</text>
</a>
</g>
</g>
<!-- n6&#45;&gt;n4 -->
<g id="edge5" class="edge"><title>n6&#45;&gt;n4</title>
<path fill="none" stroke="black" d="M390.192,-714.291C376.362,-703.077 360.753,-690.421 345.875,-678.358"/>
<polygon fill="black" stroke="black" points="347.672,-675.309 337.7,-671.73 343.264,-680.747 347.672,-675.309"/>
</g>
<!-- n7 -->
<g id="node7" class="node"><title>n7</title>
<g id="a_node7"><a xlink:title="[./model/RNN.lua]:29_">
<ellipse fill="none" stroke="black" cx="138" cy="-750" rx="138.389" ry="37.4533"/>
<text text-anchor="middle" x="138" y="-761.3" font-family="Times,serif" font-size="14.00">Node7</text>
<text text-anchor="start" x="48" y="-746.3" font-family="Times,serif" font-size="14.00">module = nn.Linear(500 &#45;&gt; 500)</text>
<text text-anchor="middle" x="138" y="-731.3" font-family="Times,serif" font-size="14.00">reverseMap = {}</text>
</a>
</g>
</g>
<!-- n7&#45;&gt;n4 -->
<g id="edge6" class="edge"><title>n7&#45;&gt;n4</title>
<path fill="none" stroke="black" d="M180.518,-714.291C194.255,-703.077 209.759,-690.421 224.537,-678.358"/>
<polygon fill="black" stroke="black" points="227.123,-680.765 232.656,-671.73 222.696,-675.342 227.123,-680.765"/>
</g>
<!-- n8&#45;&gt;n5 -->
<g id="edge7" class="edge"><title>n8&#45;&gt;n5</title>
<path fill="none" stroke="black" d="M369,-356.372C369,-347.927 369,-338.829 369,-330.011"/>
<polygon fill="black" stroke="black" points="372.5,-329.843 369,-319.844 365.5,-329.844 372.5,-329.843"/>
</g>
<!-- n9 -->
<g id="node9" class="node"><title>n9</title>
<g id="a_node9"><a xlink:title="[./model/RNN.lua]:19_">
<ellipse fill="none" stroke="black" cx="427" cy="-862" rx="82.0366" ry="37.4533"/>
<text text-anchor="middle" x="427" y="-873.3" font-family="Times,serif" font-size="14.00">Node9</text>
<text text-anchor="start" x="377" y="-858.3" font-family="Times,serif" font-size="14.00">module = OneHot</text>
<text text-anchor="middle" x="427" y="-843.3" font-family="Times,serif" font-size="14.00">reverseMap = {}</text>
</a>
</g>
</g>
<!-- n9&#45;&gt;n6 -->
<g id="edge8" class="edge"><title>n9&#45;&gt;n6</title>
<path fill="none" stroke="black" d="M428.998,-824.372C429.459,-815.927 429.955,-806.829 430.436,-798.011"/>
<polygon fill="black" stroke="black" points="433.94,-798.019 430.99,-787.844 426.951,-797.638 433.94,-798.019"/>
</g>
<!-- n10 -->
<g id="node10" class="node"><title>n10</title>
<g id="a_node10"><a xlink:title="[./model/RNN.lua]:9_">
<ellipse fill="none" stroke="black" cx="166" cy="-974" rx="94.0678" ry="37.4533"/>
<text text-anchor="middle" x="166" y="-985.3" font-family="Times,serif" font-size="14.00">Node10</text>
<text text-anchor="start" x="107.5" y="-970.3" font-family="Times,serif" font-size="14.00">module = nn.Identity</text>
<text text-anchor="middle" x="166" y="-955.3" font-family="Times,serif" font-size="14.00">reverseMap = {}</text>
</a>
</g>
</g>
<!-- n10&#45;&gt;n7 -->
<g id="edge9" class="edge"><title>n10&#45;&gt;n7</title>
<path fill="none" stroke="black" d="M161.376,-936.341C156.594,-898.422 149.109,-839.08 143.902,-797.796"/>
<polygon fill="black" stroke="black" points="147.354,-797.197 142.63,-787.713 140.409,-798.073 147.354,-797.197"/>
</g>
<!-- n11 -->
<g id="node11" class="node"><title>n11</title>
<g id="a_node11"><a xlink:title="[./model/RNN.lua]:7_">
<ellipse fill="none" stroke="black" cx="416" cy="-974" rx="94.0678" ry="37.4533"/>
<text text-anchor="middle" x="416" y="-985.3" font-family="Times,serif" font-size="14.00">Node11</text>
<text text-anchor="start" x="357.5" y="-970.3" font-family="Times,serif" font-size="14.00">module = nn.Identity</text>
<text text-anchor="middle" x="416" y="-955.3" font-family="Times,serif" font-size="14.00">reverseMap = {}</text>
</a>
</g>
</g>
<!-- n11&#45;&gt;n9 -->
<g id="edge11" class="edge"><title>n11&#45;&gt;n9</title>
<path fill="none" stroke="black" d="M419.663,-936.372C420.526,-927.744 421.457,-918.435 422.356,-909.439"/>
<polygon fill="black" stroke="black" points="425.841,-909.767 423.353,-899.468 418.875,-909.071 425.841,-909.767"/>
</g>
<!-- n12 -->
<g id="node12" class="node"><title>n12</title>
<g id="a_node12"><a xlink:title="[[C]]:&#45;1_&#45;2">
<ellipse fill="none" stroke="black" cx="174" cy="-1096" rx="77.1743" ry="48.1667"/>
<text text-anchor="middle" x="174" y="-1114.8" font-family="Times,serif" font-size="14.00">Node12</text>
<text text-anchor="start" x="127" y="-1099.8" font-family="Times,serif" font-size="14.00">input = {}</text>
<text text-anchor="start" x="127" y="-1084.8" font-family="Times,serif" font-size="14.00">selectindex = 2</text>
<text text-anchor="middle" x="174" y="-1069.8" font-family="Times,serif" font-size="14.00">reverseMap = {}</text>
</a>
</g>
</g>
<!-- n12&#45;&gt;n10 -->
<g id="edge12" class="edge"><title>n12&#45;&gt;n10</title>
<path fill="none" stroke="black" d="M170.861,-1047.92C170.289,-1039.33 169.691,-1030.37 169.119,-1021.79"/>
<polygon fill="black" stroke="black" points="172.595,-1021.3 168.437,-1011.56 165.61,-1021.77 172.595,-1021.3"/>
</g>
<!-- n13 -->
<g id="node13" class="node"><title>n13</title>
<g id="a_node13"><a xlink:title="[[C]]:&#45;1_&#45;1">
<ellipse fill="none" stroke="black" cx="364" cy="-1096" rx="77.1743" ry="48.1667"/>
<text text-anchor="middle" x="364" y="-1114.8" font-family="Times,serif" font-size="14.00">Node13</text>
<text text-anchor="start" x="317" y="-1099.8" font-family="Times,serif" font-size="14.00">input = {}</text>
<text text-anchor="start" x="317" y="-1084.8" font-family="Times,serif" font-size="14.00">selectindex = 1</text>
<text text-anchor="middle" x="364" y="-1069.8" font-family="Times,serif" font-size="14.00">reverseMap = {}</text>
</a>
</g>
</g>
<!-- n13&#45;&gt;n11 -->
<g id="edge13" class="edge"><title>n13&#45;&gt;n11</title>
<path fill="none" stroke="black" d="M383.807,-1049.29C387.897,-1039.85 392.204,-1029.91 396.291,-1020.48"/>
<polygon fill="black" stroke="black" points="399.523,-1021.83 400.288,-1011.26 393.1,-1019.04 399.523,-1021.83"/>
</g>
<!-- n14 -->
<g id="node14" class="node"><title>n14</title>
<g id="a_node14"><a xlink:title="[[C]]:&#45;1_ split at [...haozhang/torch/install/share/lua/5.1/nngraph/gmodule.lua]:96&#45;mnode">
<ellipse fill="none" stroke="black" cx="261" cy="-1218" rx="80.415" ry="37.4533"/>
<text text-anchor="middle" x="261" y="-1229.3" font-family="Times,serif" font-size="14.00">Node14</text>
<text text-anchor="start" x="212" y="-1214.3" font-family="Times,serif" font-size="14.00">reverseMap = {}</text>
<text text-anchor="middle" x="261" y="-1199.3" font-family="Times,serif" font-size="14.00">nSplitOutputs = 2</text>
</a>
</g>
</g>
<!-- n14&#45;&gt;n12 -->
<g id="edge14" class="edge"><title>n14&#45;&gt;n12</title>
<path fill="none" stroke="black" d="M235.836,-1182.29C228.163,-1171.71 219.559,-1159.84 211.264,-1148.4"/>
<polygon fill="black" stroke="black" points="213.999,-1146.21 205.296,-1140.17 208.332,-1150.32 213.999,-1146.21"/>
</g>
<!-- n14&#45;&gt;n13 -->
<g id="edge15" class="edge"><title>n14&#45;&gt;n13</title>
<path fill="none" stroke="black" d="M290.24,-1182.93C299.9,-1171.68 310.854,-1158.92 321.309,-1146.74"/>
<polygon fill="black" stroke="black" points="324.231,-1148.71 328.089,-1138.84 318.92,-1144.15 324.231,-1148.71"/>
</g>
<!-- n15 -->
<g id="node15" class="node"><title>n15</title>
<g id="a_node15"><a xlink:title="[[C]]:&#45;1_">
<ellipse fill="none" stroke="black" cx="261" cy="-1330" rx="77.1743" ry="37.4533"/>
<text text-anchor="middle" x="261" y="-1341.3" font-family="Times,serif" font-size="14.00">Node15</text>
<text text-anchor="start" x="214" y="-1326.3" font-family="Times,serif" font-size="14.00">input = {}</text>
<text text-anchor="middle" x="261" y="-1311.3" font-family="Times,serif" font-size="14.00">reverseMap = {}</text>
</a>
</g>
</g>
<!-- n15&#45;&gt;n14 -->
<g id="edge16" class="edge"><title>n15&#45;&gt;n14</title>
<path fill="none" stroke="black" d="M261,-1292.37C261,-1283.93 261,-1274.83 261,-1266.01"/>
<polygon fill="black" stroke="black" points="264.5,-1265.84 261,-1255.84 257.5,-1265.84 264.5,-1265.84"/>
</g>
</g>
</svg>
