<?xml version="1.0" encoding="UTF-8" standalone="no"?>
<!DOCTYPE svg PUBLIC "-//W3C//DTD SVG 1.1//EN"
 "http://www.w3.org/Graphics/SVG/1.1/DTD/svg11.dtd">
<!-- Generated by graphviz version 2.36.0 (20140111.2315)
 -->
<!-- Title: G Pages: 1 -->
<svg width="847pt" height="2372pt"
 viewBox="0.00 0.00 847.00 2372.00" xmlns="http://www.w3.org/2000/svg" xmlns:xlink="http://www.w3.org/1999/xlink">
<g id="graph0" class="graph" transform="scale(1 1) rotate(0) translate(4 2368)">
<title>G</title>
<polygon fill="white" stroke="none" points="-4,4 -4,-2368 843,-2368 843,4 -4,4"/>
<!-- n1 -->
<g id="node1" class="node"><title>n1</title>
<g id="a_node1"><a xlink:title="[./model/LSTM.lua]:43_">
<ellipse fill="none" stroke="black" cx="503" cy="-760" rx="124.176" ry="48.1667"/>
<text text-anchor="middle" x="503" y="-778.8" font-family="Times,serif" font-size="14.00">Node1</text>
<text text-anchor="start" x="423" y="-763.8" font-family="Times,serif" font-size="14.00">module = nn.CAddTable</text>
<text text-anchor="start" x="423" y="-748.8" font-family="Times,serif" font-size="14.00">reverseMap = {}</text>
<text text-anchor="middle" x="503" y="-733.8" font-family="Times,serif" font-size="14.00">mapindex = {Node5,Node6}</text>
</a>
</g>
</g>
<!-- n2 -->
<g id="node2" class="node"><title>n2</title>
<g id="a_node2"><a xlink:title="[[C]]:&#45;1_">
<ellipse fill="none" stroke="black" cx="670" cy="-48" rx="152.042" ry="48.1667"/>
<text text-anchor="middle" x="670" y="-66.8" font-family="Times,serif" font-size="14.00">Node2</text>
<text text-anchor="start" x="570.5" y="-51.8" font-family="Times,serif" font-size="14.00">input = {}</text>
<text text-anchor="start" x="570.5" y="-36.8" font-family="Times,serif" font-size="14.00">mapindex = {Node1,Node3,Node4}</text>
<text text-anchor="middle" x="670" y="-21.8" font-family="Times,serif" font-size="14.00">reverseMap = {}</text>
</a>
</g>
</g>
<!-- n1&#45;&gt;n2 -->
<g id="edge1" class="edge"><title>n1&#45;&gt;n2</title>
<path fill="none" stroke="black" d="M503,-711.701C503,-662.92 503,-584.642 503,-517 503,-517 503,-517 503,-281 503,-211.951 506.199,-187.706 547,-132 557.116,-118.188 570.269,-105.954 584.201,-95.4092"/>
<polygon fill="black" stroke="black" points="586.443,-98.1061 592.476,-89.3966 582.329,-92.443 586.443,-98.1061"/>
</g>
<!-- n8 -->
<g id="node8" class="node"><title>n8</title>
<g id="a_node8"><a xlink:title="[./model/LSTM.lua]:48_">
<ellipse fill="none" stroke="black" cx="619" cy="-638" rx="84.2187" ry="37.4533"/>
<text text-anchor="middle" x="619" y="-649.3" font-family="Times,serif" font-size="14.00">Node8</text>
<text text-anchor="start" x="567.5" y="-634.3" font-family="Times,serif" font-size="14.00">module = nn.Tanh</text>
<text text-anchor="middle" x="619" y="-619.3" font-family="Times,serif" font-size="14.00">reverseMap = {}</text>
</a>
</g>
</g>
<!-- n1&#45;&gt;n8 -->
<g id="edge14" class="edge"><title>n1&#45;&gt;n8</title>
<path fill="none" stroke="black" d="M545.865,-714.657C556.877,-703.266 568.671,-691.064 579.504,-679.858"/>
<polygon fill="black" stroke="black" points="582.032,-682.279 586.466,-672.656 576.999,-677.413 582.032,-682.279"/>
</g>
<!-- n3 -->
<g id="node3" class="node"><title>n3</title>
<g id="a_node3"><a xlink:title="[./model/LSTM.lua]:48_">
<ellipse fill="none" stroke="black" cx="704" cy="-516" rx="124.176" ry="48.1667"/>
<text text-anchor="middle" x="704" y="-534.8" font-family="Times,serif" font-size="14.00">Node3</text>
<text text-anchor="start" x="624" y="-519.8" font-family="Times,serif" font-size="14.00">module = nn.CMulTable</text>
<text text-anchor="start" x="624" y="-504.8" font-family="Times,serif" font-size="14.00">reverseMap = {}</text>
<text text-anchor="middle" x="704" y="-489.8" font-family="Times,serif" font-size="14.00">mapindex = {Node7,Node8}</text>
</a>
</g>
</g>
<!-- n3&#45;&gt;n2 -->
<g id="edge2" class="edge"><title>n3&#45;&gt;n2</title>
<path fill="none" stroke="black" d="M776.858,-476.993C792.97,-464.905 807.93,-449.917 817,-432 832.257,-401.864 818.503,-389.744 817,-356 812.541,-255.926 844.638,-217.229 792,-132 783.361,-118.012 771.385,-105.82 758.289,-95.4044"/>
<polygon fill="black" stroke="black" points="760.099,-92.3848 750.01,-89.1482 755.879,-97.9695 760.099,-92.3848"/>
</g>
<!-- n15 -->
<g id="node15" class="node"><title>n15</title>
<g id="a_node15"><a xlink:title="[./model/LSTM.lua]:56_">
<ellipse fill="none" stroke="black" cx="670" cy="-394" rx="138.389" ry="37.4533"/>
<text text-anchor="middle" x="670" y="-405.3" font-family="Times,serif" font-size="14.00">Node15</text>
<text text-anchor="start" x="580" y="-390.3" font-family="Times,serif" font-size="14.00">module = nn.Dropout(0.100000)</text>
<text text-anchor="middle" x="670" y="-375.3" font-family="Times,serif" font-size="14.00">reverseMap = {}</text>
</a>
</g>
</g>
<!-- n3&#45;&gt;n15 -->
<g id="edge21" class="edge"><title>n3&#45;&gt;n15</title>
<path fill="none" stroke="black" d="M690.66,-467.917C688.173,-459.139 685.576,-449.974 683.096,-441.222"/>
<polygon fill="black" stroke="black" points="686.452,-440.226 680.358,-431.559 679.717,-442.134 686.452,-440.226"/>
</g>
<!-- n4 -->
<g id="node4" class="node"><title>n4</title>
<g id="a_node4"><a xlink:title="[./model/LSTM.lua]:58_">
<ellipse fill="none" stroke="black" cx="670" cy="-170" rx="113.267" ry="37.4533"/>
<text text-anchor="middle" x="670" y="-181.3" font-family="Times,serif" font-size="14.00">Node4</text>
<text text-anchor="start" x="597.5" y="-166.3" font-family="Times,serif" font-size="14.00">module = nn.LogSoftMax</text>
<text text-anchor="middle" x="670" y="-151.3" font-family="Times,serif" font-size="14.00">reverseMap = {}</text>
</a>
</g>
</g>
<!-- n4&#45;&gt;n2 -->
<g id="edge3" class="edge"><title>n4&#45;&gt;n2</title>
<path fill="none" stroke="black" d="M670,-132.344C670,-124.219 670,-115.418 670,-106.683"/>
<polygon fill="black" stroke="black" points="673.5,-106.503 670,-96.5026 666.5,-106.503 673.5,-106.503"/>
</g>
<!-- n5 -->
<g id="node5" class="node"><title>n5</title>
<g id="a_node5"><a xlink:title="[./model/LSTM.lua]:44_">
<ellipse fill="none" stroke="black" cx="218" cy="-892" rx="133.465" ry="48.1667"/>
<text text-anchor="middle" x="218" y="-910.8" font-family="Times,serif" font-size="14.00">Node5</text>
<text text-anchor="start" x="131.5" y="-895.8" font-family="Times,serif" font-size="14.00">module = nn.CMulTable</text>
<text text-anchor="start" x="131.5" y="-880.8" font-family="Times,serif" font-size="14.00">reverseMap = {}</text>
<text text-anchor="middle" x="218" y="-865.8" font-family="Times,serif" font-size="14.00">mapindex = {Node10,Node11}</text>
</a>
</g>
</g>
<!-- n5&#45;&gt;n1 -->
<g id="edge4" class="edge"><title>n5&#45;&gt;n1</title>
<path fill="none" stroke="black" d="M299.67,-853.747C335.607,-837.355 377.899,-818.063 414.579,-801.333"/>
<polygon fill="black" stroke="black" points="416.13,-804.472 423.776,-797.137 413.225,-798.103 416.13,-804.472"/>
</g>
<!-- n6 -->
<g id="node6" class="node"><title>n6</title>
<g id="a_node6"><a xlink:title="[./model/LSTM.lua]:45_">
<ellipse fill="none" stroke="black" cx="503" cy="-892" rx="133.465" ry="48.1667"/>
<text text-anchor="middle" x="503" y="-910.8" font-family="Times,serif" font-size="14.00">Node6</text>
<text text-anchor="start" x="416.5" y="-895.8" font-family="Times,serif" font-size="14.00">module = nn.CMulTable</text>
<text text-anchor="start" x="416.5" y="-880.8" font-family="Times,serif" font-size="14.00">reverseMap = {}</text>
<text text-anchor="middle" x="503" y="-865.8" font-family="Times,serif" font-size="14.00">mapindex = {Node12,Node13}</text>
</a>
</g>
</g>
<!-- n6&#45;&gt;n1 -->
<g id="edge5" class="edge"><title>n6&#45;&gt;n1</title>
<path fill="none" stroke="black" d="M503,-843.699C503,-835.544 503,-826.987 503,-818.597"/>
<polygon fill="black" stroke="black" points="506.5,-818.483 503,-808.483 499.5,-818.483 506.5,-818.483"/>
</g>
<!-- n7 -->
<g id="node7" class="node"><title>n7</title>
<g id="a_node7"><a xlink:title="[./model/LSTM.lua]:39_">
<ellipse fill="none" stroke="black" cx="742" cy="-760" rx="96.3112" ry="37.4533"/>
<text text-anchor="middle" x="742" y="-771.3" font-family="Times,serif" font-size="14.00">Node7</text>
<text text-anchor="start" x="681.5" y="-756.3" font-family="Times,serif" font-size="14.00">module = nn.Sigmoid</text>
<text text-anchor="middle" x="742" y="-741.3" font-family="Times,serif" font-size="14.00">reverseMap = {}</text>
</a>
</g>
</g>
<!-- n7&#45;&gt;n3 -->
<g id="edge6" class="edge"><title>n7&#45;&gt;n3</title>
<path fill="none" stroke="black" d="M736.27,-722.508C730.102,-683.226 720.206,-620.209 712.998,-574.303"/>
<polygon fill="black" stroke="black" points="716.42,-573.535 711.411,-564.199 709.505,-574.62 716.42,-573.535"/>
</g>
<!-- n8&#45;&gt;n3 -->
<g id="edge7" class="edge"><title>n8&#45;&gt;n3</title>
<path fill="none" stroke="black" d="M643.814,-601.968C650.696,-592.252 658.332,-581.472 665.79,-570.944"/>
<polygon fill="black" stroke="black" points="668.79,-572.763 671.715,-562.579 663.078,-568.717 668.79,-572.763"/>
</g>
<!-- n9 -->
<g id="node9" class="node"><title>n9</title>
<g id="a_node9"><a xlink:title="[./model/LSTM.lua]:57_">
<ellipse fill="none" stroke="black" cx="670" cy="-282" rx="128.54" ry="37.4533"/>
<text text-anchor="middle" x="670" y="-293.3" font-family="Times,serif" font-size="14.00">decoder (9)</text>
<text text-anchor="start" x="587" y="-278.3" font-family="Times,serif" font-size="14.00">module = nn.Linear(30 &#45;&gt; 10)</text>
<text text-anchor="middle" x="670" y="-263.3" font-family="Times,serif" font-size="14.00">reverseMap = {}</text>
</a>
</g>
</g>
<!-- n9&#45;&gt;n4 -->
<g id="edge8" class="edge"><title>n9&#45;&gt;n4</title>
<path fill="none" stroke="black" d="M670,-244.372C670,-235.927 670,-226.829 670,-218.011"/>
<polygon fill="black" stroke="black" points="673.5,-217.843 670,-207.844 666.5,-217.844 673.5,-217.843"/>
</g>
<!-- n10 -->
<g id="node10" class="node"><title>n10</title>
<g id="a_node10"><a xlink:title="[./model/LSTM.lua]:38_">
<ellipse fill="none" stroke="black" cx="219" cy="-1014" rx="96.3112" ry="37.4533"/>
<text text-anchor="middle" x="219" y="-1025.3" font-family="Times,serif" font-size="14.00">Node10</text>
<text text-anchor="start" x="158.5" y="-1010.3" font-family="Times,serif" font-size="14.00">module = nn.Sigmoid</text>
<text text-anchor="middle" x="219" y="-995.3" font-family="Times,serif" font-size="14.00">reverseMap = {}</text>
</a>
</g>
</g>
<!-- n10&#45;&gt;n5 -->
<g id="edge9" class="edge"><title>n10&#45;&gt;n5</title>
<path fill="none" stroke="black" d="M218.695,-976.344C218.627,-968.219 218.553,-959.418 218.481,-950.683"/>
<polygon fill="black" stroke="black" points="221.979,-950.473 218.396,-940.503 214.979,-950.531 221.979,-950.473"/>
</g>
<!-- n11 -->
<g id="node11" class="node"><title>n11</title>
<g id="a_node11"><a xlink:title="[./model/LSTM.lua]:10_">
<ellipse fill="none" stroke="black" cx="94" cy="-1726" rx="94.0678" ry="37.4533"/>
<text text-anchor="middle" x="94" y="-1737.3" font-family="Times,serif" font-size="14.00">Node11</text>
<text text-anchor="start" x="35.5" y="-1722.3" font-family="Times,serif" font-size="14.00">module = nn.Identity</text>
<text text-anchor="middle" x="94" y="-1707.3" font-family="Times,serif" font-size="14.00">reverseMap = {}</text>
</a>
</g>
</g>
<!-- n11&#45;&gt;n5 -->
<g id="edge10" class="edge"><title>n11&#45;&gt;n5</title>
<path fill="none" stroke="black" d="M94,-1688.51C94,-1641.14 94,-1555.89 94,-1483 94,-1483 94,-1483 94,-1135 94,-1063.83 78.2312,-1038.1 113,-976 120.496,-962.611 131.112,-950.607 142.738,-940.164"/>
<polygon fill="black" stroke="black" points="145.175,-942.686 150.502,-933.528 140.626,-937.365 145.175,-942.686"/>
</g>
<!-- n12 -->
<g id="node12" class="node"><title>n12</title>
<g id="a_node12"><a xlink:title="[./model/LSTM.lua]:37_">
<ellipse fill="none" stroke="black" cx="431" cy="-1014" rx="96.3112" ry="37.4533"/>
<text text-anchor="middle" x="431" y="-1025.3" font-family="Times,serif" font-size="14.00">Node12</text>
<text text-anchor="start" x="370.5" y="-1010.3" font-family="Times,serif" font-size="14.00">module = nn.Sigmoid</text>
<text text-anchor="middle" x="431" y="-995.3" font-family="Times,serif" font-size="14.00">reverseMap = {}</text>
</a>
</g>
</g>
<!-- n12&#45;&gt;n6 -->
<g id="edge11" class="edge"><title>n12&#45;&gt;n6</title>
<path fill="none" stroke="black" d="M452.407,-977.321C457.922,-968.13 463.986,-958.023 469.942,-948.096"/>
<polygon fill="black" stroke="black" points="472.989,-949.822 475.132,-939.446 466.986,-946.22 472.989,-949.822"/>
</g>
<!-- n13 -->
<g id="node13" class="node"><title>n13</title>
<g id="a_node13"><a xlink:title="[./model/LSTM.lua]:41_">
<ellipse fill="none" stroke="black" cx="630" cy="-1014" rx="84.2187" ry="37.4533"/>
<text text-anchor="middle" x="630" y="-1025.3" font-family="Times,serif" font-size="14.00">Node13</text>
<text text-anchor="start" x="578.5" y="-1010.3" font-family="Times,serif" font-size="14.00">module = nn.Tanh</text>
<text text-anchor="middle" x="630" y="-995.3" font-family="Times,serif" font-size="14.00">reverseMap = {}</text>
</a>
</g>
</g>
<!-- n13&#45;&gt;n6 -->
<g id="edge12" class="edge"><title>n13&#45;&gt;n6</title>
<path fill="none" stroke="black" d="M594.961,-979.892C583.299,-968.873 570.023,-956.329 557.257,-944.266"/>
<polygon fill="black" stroke="black" points="559.488,-941.559 549.815,-937.235 554.68,-946.647 559.488,-941.559"/>
</g>
<!-- n14 -->
<g id="node14" class="node"><title>n14</title>
<g id="a_node14"><a xlink:title="[./model/LSTM.lua]:35_&#45;3">
<ellipse fill="none" stroke="black" cx="742" cy="-892" rx="77.1743" ry="48.1667"/>
<text text-anchor="middle" x="742" y="-910.8" font-family="Times,serif" font-size="14.00">Node14</text>
<text text-anchor="start" x="695" y="-895.8" font-family="Times,serif" font-size="14.00">input = {}</text>
<text text-anchor="start" x="695" y="-880.8" font-family="Times,serif" font-size="14.00">selectindex = 3</text>
<text text-anchor="middle" x="742" y="-865.8" font-family="Times,serif" font-size="14.00">reverseMap = {}</text>
</a>
</g>
</g>
<!-- n14&#45;&gt;n7 -->
<g id="edge13" class="edge"><title>n14&#45;&gt;n7</title>
<path fill="none" stroke="black" d="M742,-843.699C742,-832.138 742,-819.768 742,-808.211"/>
<polygon fill="black" stroke="black" points="745.5,-807.872 742,-797.872 738.5,-807.873 745.5,-807.872"/>
</g>
<!-- n15&#45;&gt;n9 -->
<g id="edge15" class="edge"><title>n15&#45;&gt;n9</title>
<path fill="none" stroke="black" d="M670,-356.372C670,-347.927 670,-338.829 670,-330.011"/>
<polygon fill="black" stroke="black" points="673.5,-329.843 670,-319.844 666.5,-329.844 673.5,-329.843"/>
</g>
<!-- n16 -->
<g id="node16" class="node"><title>n16</title>
<g id="a_node16"><a xlink:title="[./model/LSTM.lua]:35_&#45;2">
<ellipse fill="none" stroke="black" cx="244" cy="-1136" rx="77.1743" ry="48.1667"/>
<text text-anchor="middle" x="244" y="-1154.8" font-family="Times,serif" font-size="14.00">Node16</text>
<text text-anchor="start" x="197" y="-1139.8" font-family="Times,serif" font-size="14.00">input = {}</text>
<text text-anchor="start" x="197" y="-1124.8" font-family="Times,serif" font-size="14.00">selectindex = 2</text>
<text text-anchor="middle" x="244" y="-1109.8" font-family="Times,serif" font-size="14.00">reverseMap = {}</text>
</a>
</g>
</g>
<!-- n16&#45;&gt;n10 -->
<g id="edge16" class="edge"><title>n16&#45;&gt;n10</title>
<path fill="none" stroke="black" d="M234.263,-1088.26C232.41,-1079.37 230.472,-1070.07 228.623,-1061.19"/>
<polygon fill="black" stroke="black" points="232.048,-1060.47 226.582,-1051.39 225.195,-1061.9 232.048,-1060.47"/>
</g>
<!-- n17 -->
<g id="node17" class="node"><title>n17</title>
<g id="a_node17"><a xlink:title="[[C]]:&#45;1_&#45;2">
<ellipse fill="none" stroke="black" cx="94" cy="-1960" rx="77.1743" ry="48.1667"/>
<text text-anchor="middle" x="94" y="-1978.8" font-family="Times,serif" font-size="14.00">Node17</text>
<text text-anchor="start" x="47" y="-1963.8" font-family="Times,serif" font-size="14.00">input = {}</text>
<text text-anchor="start" x="47" y="-1948.8" font-family="Times,serif" font-size="14.00">selectindex = 2</text>
<text text-anchor="middle" x="94" y="-1933.8" font-family="Times,serif" font-size="14.00">reverseMap = {}</text>
</a>
</g>
</g>
<!-- n17&#45;&gt;n11 -->
<g id="edge17" class="edge"><title>n17&#45;&gt;n11</title>
<path fill="none" stroke="black" d="M94,-1911.77C94,-1871.43 94,-1813.72 94,-1773.57"/>
<polygon fill="black" stroke="black" points="97.5001,-1773.51 94,-1763.51 90.5001,-1773.51 97.5001,-1773.51"/>
</g>
<!-- n18 -->
<g id="node18" class="node"><title>n18</title>
<g id="a_node18"><a xlink:title="[./model/LSTM.lua]:35_&#45;1">
<ellipse fill="none" stroke="black" cx="437" cy="-1136" rx="77.1743" ry="48.1667"/>
<text text-anchor="middle" x="437" y="-1154.8" font-family="Times,serif" font-size="14.00">Node18</text>
<text text-anchor="start" x="390" y="-1139.8" font-family="Times,serif" font-size="14.00">input = {}</text>
<text text-anchor="start" x="390" y="-1124.8" font-family="Times,serif" font-size="14.00">selectindex = 1</text>
<text text-anchor="middle" x="437" y="-1109.8" font-family="Times,serif" font-size="14.00">reverseMap = {}</text>
</a>
</g>
</g>
<!-- n18&#45;&gt;n12 -->
<g id="edge18" class="edge"><title>n18&#45;&gt;n12</title>
<path fill="none" stroke="black" d="M434.646,-1087.92C434.216,-1079.33 433.768,-1070.37 433.339,-1061.79"/>
<polygon fill="black" stroke="black" points="436.823,-1061.37 432.828,-1051.56 429.832,-1061.72 436.823,-1061.37"/>
</g>
<!-- n19 -->
<g id="node19" class="node"><title>n19</title>
<g id="a_node19"><a xlink:title="[./model/LSTM.lua]:35_&#45;4">
<ellipse fill="none" stroke="black" cx="618" cy="-1136" rx="77.1743" ry="48.1667"/>
<text text-anchor="middle" x="618" y="-1154.8" font-family="Times,serif" font-size="14.00">Node19</text>
<text text-anchor="start" x="571" y="-1139.8" font-family="Times,serif" font-size="14.00">input = {}</text>
<text text-anchor="start" x="571" y="-1124.8" font-family="Times,serif" font-size="14.00">selectindex = 4</text>
<text text-anchor="middle" x="618" y="-1109.8" font-family="Times,serif" font-size="14.00">reverseMap = {}</text>
</a>
</g>
</g>
<!-- n19&#45;&gt;n13 -->
<g id="edge19" class="edge"><title>n19&#45;&gt;n13</title>
<path fill="none" stroke="black" d="M622.708,-1087.92C623.567,-1079.33 624.463,-1070.37 625.321,-1061.79"/>
<polygon fill="black" stroke="black" points="628.832,-1061.86 626.344,-1051.56 621.866,-1061.16 628.832,-1061.86"/>
</g>
<!-- n20 -->
<g id="node20" class="node"><title>n20</title>
<g id="a_node20"><a xlink:title="[./model/LSTM.lua]:35_ split at [./model/LSTM.lua]:35&#45;mnode">
<ellipse fill="none" stroke="black" cx="449" cy="-1258" rx="80.415" ry="37.4533"/>
<text text-anchor="middle" x="449" y="-1269.3" font-family="Times,serif" font-size="14.00">Node20</text>
<text text-anchor="start" x="400" y="-1254.3" font-family="Times,serif" font-size="14.00">reverseMap = {}</text>
<text text-anchor="middle" x="449" y="-1239.3" font-family="Times,serif" font-size="14.00">nSplitOutputs = 4</text>
</a>
</g>
</g>
<!-- n20&#45;&gt;n14 -->
<g id="edge20" class="edge"><title>n20&#45;&gt;n14</title>
<path fill="none" stroke="black" d="M524.202,-1244.73C590.572,-1232.32 680.347,-1211.11 704,-1184 760.202,-1119.59 759.059,-1014.62 751.596,-949.915"/>
<polygon fill="black" stroke="black" points="755.057,-949.382 750.352,-939.889 748.11,-950.244 755.057,-949.382"/>
</g>
<!-- n20&#45;&gt;n16 -->
<g id="edge22" class="edge"><title>n20&#45;&gt;n16</title>
<path fill="none" stroke="black" d="M399.897,-1228.26C372.524,-1212.23 338.101,-1192.08 308.569,-1174.8"/>
<polygon fill="black" stroke="black" points="309.972,-1171.56 299.574,-1169.53 306.436,-1177.6 309.972,-1171.56"/>
</g>
<!-- n20&#45;&gt;n18 -->
<g id="edge24" class="edge"><title>n20&#45;&gt;n18</title>
<path fill="none" stroke="black" d="M445.334,-1220.34C444.503,-1212.03 443.601,-1203.01 442.707,-1194.07"/>
<polygon fill="black" stroke="black" points="446.184,-1193.67 441.707,-1184.07 439.219,-1194.37 446.184,-1193.67"/>
</g>
<!-- n20&#45;&gt;n19 -->
<g id="edge25" class="edge"><title>n20&#45;&gt;n19</title>
<path fill="none" stroke="black" d="M492.522,-1226.1C512.901,-1211.63 537.476,-1194.18 559.457,-1178.57"/>
<polygon fill="black" stroke="black" points="561.612,-1181.33 567.739,-1172.69 557.56,-1175.62 561.612,-1181.33"/>
</g>
<!-- n21 -->
<g id="node21" class="node"><title>n21</title>
<g id="a_node21"><a xlink:title="[[C]]:&#45;1_ split at [...haozhang/torch/install/share/lua/5.1/nngraph/gmodule.lua]:96&#45;mnode">
<ellipse fill="none" stroke="black" cx="284" cy="-2214" rx="80.415" ry="37.4533"/>
<text text-anchor="middle" x="284" y="-2225.3" font-family="Times,serif" font-size="14.00">Node21</text>
<text text-anchor="start" x="235" y="-2210.3" font-family="Times,serif" font-size="14.00">reverseMap = {}</text>
<text text-anchor="middle" x="284" y="-2195.3" font-family="Times,serif" font-size="14.00">nSplitOutputs = 3</text>
</a>
</g>
</g>
<!-- n21&#45;&gt;n17 -->
<g id="edge23" class="edge"><title>n21&#45;&gt;n17</title>
<path fill="none" stroke="black" d="M241.006,-2181.91C226.029,-2169.85 209.79,-2155.26 197,-2140 165.158,-2102 137.663,-2052.82 119.11,-2015.63"/>
<polygon fill="black" stroke="black" points="122.146,-2013.88 114.588,-2006.45 115.866,-2016.97 122.146,-2013.88"/>
</g>
<!-- n31 -->
<g id="node31" class="node"><title>n31</title>
<g id="a_node31"><a xlink:title="[[C]]:&#45;1_&#45;3">
<ellipse fill="none" stroke="black" cx="284" cy="-2092" rx="77.1743" ry="48.1667"/>
<text text-anchor="middle" x="284" y="-2110.8" font-family="Times,serif" font-size="14.00">Node31</text>
<text text-anchor="start" x="237" y="-2095.8" font-family="Times,serif" font-size="14.00">input = {}</text>
<text text-anchor="start" x="237" y="-2080.8" font-family="Times,serif" font-size="14.00">selectindex = 3</text>
<text text-anchor="middle" x="284" y="-2065.8" font-family="Times,serif" font-size="14.00">reverseMap = {}</text>
</a>
</g>
</g>
<!-- n21&#45;&gt;n31 -->
<g id="edge37" class="edge"><title>n21&#45;&gt;n31</title>
<path fill="none" stroke="black" d="M284,-2176.34C284,-2168.22 284,-2159.42 284,-2150.68"/>
<polygon fill="black" stroke="black" points="287.5,-2150.5 284,-2140.5 280.5,-2150.5 287.5,-2150.5"/>
</g>
<!-- n32 -->
<g id="node32" class="node"><title>n32</title>
<g id="a_node32"><a xlink:title="[[C]]:&#45;1_&#45;1">
<ellipse fill="none" stroke="black" cx="477" cy="-2092" rx="77.1743" ry="48.1667"/>
<text text-anchor="middle" x="477" y="-2110.8" font-family="Times,serif" font-size="14.00">Node32</text>
<text text-anchor="start" x="430" y="-2095.8" font-family="Times,serif" font-size="14.00">input = {}</text>
<text text-anchor="start" x="430" y="-2080.8" font-family="Times,serif" font-size="14.00">selectindex = 1</text>
<text text-anchor="middle" x="477" y="-2065.8" font-family="Times,serif" font-size="14.00">reverseMap = {}</text>
</a>
</g>
</g>
<!-- n21&#45;&gt;n32 -->
<g id="edge38" class="edge"><title>n21&#45;&gt;n32</title>
<path fill="none" stroke="black" d="M331.213,-2183.64C356.186,-2168.12 387.179,-2148.85 414.159,-2132.07"/>
<polygon fill="black" stroke="black" points="416.121,-2134.97 422.765,-2126.72 412.425,-2129.03 416.121,-2134.97"/>
</g>
<!-- n22 -->
<g id="node22" class="node"><title>n22</title>
<g id="a_node22"><a xlink:title="[./model/LSTM.lua]:35_">
<ellipse fill="none" stroke="black" cx="449" cy="-1370" rx="103.417" ry="37.4533"/>
<text text-anchor="middle" x="449" y="-1381.3" font-family="Times,serif" font-size="14.00">Node22</text>
<text text-anchor="start" x="383.5" y="-1366.3" font-family="Times,serif" font-size="14.00">module = nn.SplitTable</text>
<text text-anchor="middle" x="449" y="-1351.3" font-family="Times,serif" font-size="14.00">reverseMap = {}</text>
</a>
</g>
</g>
<!-- n22&#45;&gt;n20 -->
<g id="edge26" class="edge"><title>n22&#45;&gt;n20</title>
<path fill="none" stroke="black" d="M449,-1332.37C449,-1323.93 449,-1314.83 449,-1306.01"/>
<polygon fill="black" stroke="black" points="452.5,-1305.84 449,-1295.84 445.5,-1305.84 452.5,-1305.84"/>
</g>
<!-- n23 -->
<g id="node23" class="node"><title>n23</title>
<g id="a_node23"><a xlink:title="[[C]]:&#45;1_">
<ellipse fill="none" stroke="black" cx="284" cy="-2326" rx="77.1743" ry="37.4533"/>
<text text-anchor="middle" x="284" y="-2337.3" font-family="Times,serif" font-size="14.00">Node23</text>
<text text-anchor="start" x="237" y="-2322.3" font-family="Times,serif" font-size="14.00">input = {}</text>
<text text-anchor="middle" x="284" y="-2307.3" font-family="Times,serif" font-size="14.00">reverseMap = {}</text>
</a>
</g>
</g>
<!-- n23&#45;&gt;n21 -->
<g id="edge27" class="edge"><title>n23&#45;&gt;n21</title>
<path fill="none" stroke="black" d="M284,-2288.37C284,-2279.93 284,-2270.83 284,-2262.01"/>
<polygon fill="black" stroke="black" points="287.5,-2261.84 284,-2251.84 280.5,-2261.84 287.5,-2261.84"/>
</g>
<!-- n24 -->
<g id="node24" class="node"><title>n24</title>
<g id="a_node24"><a xlink:title="[./model/LSTM.lua]:34_">
<ellipse fill="none" stroke="black" cx="449" cy="-1482" rx="121.995" ry="37.4533"/>
<text text-anchor="middle" x="449" y="-1493.3" font-family="Times,serif" font-size="14.00">Node24</text>
<text text-anchor="start" x="370.5" y="-1478.3" font-family="Times,serif" font-size="14.00">module = nn.Reshape(4x30)</text>
<text text-anchor="middle" x="449" y="-1463.3" font-family="Times,serif" font-size="14.00">reverseMap = {}</text>
</a>
</g>
</g>
<!-- n24&#45;&gt;n22 -->
<g id="edge28" class="edge"><title>n24&#45;&gt;n22</title>
<path fill="none" stroke="black" d="M449,-1444.37C449,-1435.93 449,-1426.83 449,-1418.01"/>
<polygon fill="black" stroke="black" points="452.5,-1417.84 449,-1407.84 445.5,-1417.84 452.5,-1417.84"/>
</g>
<!-- n25 -->
<g id="node25" class="node"><title>n25</title>
<g id="a_node25"><a xlink:title="[./model/LSTM.lua]:32_">
<ellipse fill="none" stroke="black" cx="449" cy="-1604" rx="133.465" ry="48.1667"/>
<text text-anchor="middle" x="449" y="-1622.8" font-family="Times,serif" font-size="14.00">Node25</text>
<text text-anchor="start" x="362.5" y="-1607.8" font-family="Times,serif" font-size="14.00">module = nn.CAddTable</text>
<text text-anchor="start" x="362.5" y="-1592.8" font-family="Times,serif" font-size="14.00">reverseMap = {}</text>
<text text-anchor="middle" x="449" y="-1577.8" font-family="Times,serif" font-size="14.00">mapindex = {Node26,Node27}</text>
</a>
</g>
</g>
<!-- n25&#45;&gt;n24 -->
<g id="edge29" class="edge"><title>n25&#45;&gt;n24</title>
<path fill="none" stroke="black" d="M449,-1555.57C449,-1547.1 449,-1538.27 449,-1529.81"/>
<polygon fill="black" stroke="black" points="452.5,-1529.72 449,-1519.72 445.5,-1529.72 452.5,-1529.72"/>
</g>
<!-- n26 -->
<g id="node26" class="node"><title>n26</title>
<g id="a_node26"><a xlink:title="[./model/LSTM.lua]:30_">
<ellipse fill="none" stroke="black" cx="478" cy="-1726" rx="133.465" ry="37.4533"/>
<text text-anchor="middle" x="478" y="-1737.3" font-family="Times,serif" font-size="14.00">i2h_1 (26)</text>
<text text-anchor="start" x="391.5" y="-1722.3" font-family="Times,serif" font-size="14.00">module = nn.Linear(10 &#45;&gt; 120)</text>
<text text-anchor="middle" x="478" y="-1707.3" font-family="Times,serif" font-size="14.00">reverseMap = {}</text>
</a>
</g>
</g>
<!-- n26&#45;&gt;n25 -->
<g id="edge30" class="edge"><title>n26&#45;&gt;n25</title>
<path fill="none" stroke="black" d="M469.141,-1688.34C467.132,-1680.03 464.952,-1671.01 462.793,-1662.07"/>
<polygon fill="black" stroke="black" points="466.126,-1660.96 460.374,-1652.07 459.321,-1662.61 466.126,-1660.96"/>
</g>
<!-- n27 -->
<g id="node27" class="node"><title>n27</title>
<g id="a_node27"><a xlink:title="[./model/LSTM.lua]:31_">
<ellipse fill="none" stroke="black" cx="277" cy="-1838" rx="133.465" ry="37.4533"/>
<text text-anchor="middle" x="277" y="-1849.3" font-family="Times,serif" font-size="14.00">h2h_1 (27)</text>
<text text-anchor="start" x="190.5" y="-1834.3" font-family="Times,serif" font-size="14.00">module = nn.Linear(30 &#45;&gt; 120)</text>
<text text-anchor="middle" x="277" y="-1819.3" font-family="Times,serif" font-size="14.00">reverseMap = {}</text>
</a>
</g>
</g>
<!-- n27&#45;&gt;n25 -->
<g id="edge31" class="edge"><title>n27&#45;&gt;n25</title>
<path fill="none" stroke="black" d="M285.026,-1800.39C293.428,-1768.3 309.083,-1721.65 335,-1688 345.365,-1674.54 358.486,-1662.28 372.107,-1651.56"/>
<polygon fill="black" stroke="black" points="374.329,-1654.27 380.168,-1645.43 370.09,-1648.7 374.329,-1654.27"/>
</g>
<!-- n28 -->
<g id="node28" class="node"><title>n28</title>
<g id="a_node28"><a xlink:title="[./model/LSTM.lua]:22_">
<ellipse fill="none" stroke="black" cx="511" cy="-1838" rx="82.0366" ry="37.4533"/>
<text text-anchor="middle" x="511" y="-1849.3" font-family="Times,serif" font-size="14.00">Node28</text>
<text text-anchor="start" x="461" y="-1834.3" font-family="Times,serif" font-size="14.00">module = OneHot</text>
<text text-anchor="middle" x="511" y="-1819.3" font-family="Times,serif" font-size="14.00">reverseMap = {}</text>
</a>
</g>
</g>
<!-- n28&#45;&gt;n26 -->
<g id="edge32" class="edge"><title>n28&#45;&gt;n26</title>
<path fill="none" stroke="black" d="M500.103,-1800.68C497.484,-1791.95 494.65,-1782.5 491.914,-1773.38"/>
<polygon fill="black" stroke="black" points="495.224,-1772.23 488.998,-1763.66 488.519,-1774.24 495.224,-1772.23"/>
</g>
<!-- n29 -->
<g id="node29" class="node"><title>n29</title>
<g id="a_node29"><a xlink:title="[./model/LSTM.lua]:11_">
<ellipse fill="none" stroke="black" cx="284" cy="-1960" rx="94.0678" ry="37.4533"/>
<text text-anchor="middle" x="284" y="-1971.3" font-family="Times,serif" font-size="14.00">Node29</text>
<text text-anchor="start" x="225.5" y="-1956.3" font-family="Times,serif" font-size="14.00">module = nn.Identity</text>
<text text-anchor="middle" x="284" y="-1941.3" font-family="Times,serif" font-size="14.00">reverseMap = {}</text>
</a>
</g>
</g>
<!-- n29&#45;&gt;n27 -->
<g id="edge33" class="edge"><title>n29&#45;&gt;n27</title>
<path fill="none" stroke="black" d="M281.862,-1922.34C281.196,-1910.94 280.453,-1898.19 279.752,-1886.17"/>
<polygon fill="black" stroke="black" points="283.226,-1885.62 279.149,-1875.85 276.238,-1886.03 283.226,-1885.62"/>
</g>
<!-- n30 -->
<g id="node30" class="node"><title>n30</title>
<g id="a_node30"><a xlink:title="[./model/LSTM.lua]:8_">
<ellipse fill="none" stroke="black" cx="497" cy="-1960" rx="94.0678" ry="37.4533"/>
<text text-anchor="middle" x="497" y="-1971.3" font-family="Times,serif" font-size="14.00">Node30</text>
<text text-anchor="start" x="438.5" y="-1956.3" font-family="Times,serif" font-size="14.00">module = nn.Identity</text>
<text text-anchor="middle" x="497" y="-1941.3" font-family="Times,serif" font-size="14.00">reverseMap = {}</text>
</a>
</g>
</g>
<!-- n30&#45;&gt;n28 -->
<g id="edge34" class="edge"><title>n30&#45;&gt;n28</title>
<path fill="none" stroke="black" d="M501.277,-1922.34C502.634,-1910.71 504.152,-1897.7 505.579,-1885.47"/>
<polygon fill="black" stroke="black" points="509.067,-1885.77 506.75,-1875.43 502.114,-1884.96 509.067,-1885.77"/>
</g>
<!-- n31&#45;&gt;n29 -->
<g id="edge35" class="edge"><title>n31&#45;&gt;n29</title>
<path fill="none" stroke="black" d="M284,-2043.7C284,-2032.14 284,-2019.77 284,-2008.21"/>
<polygon fill="black" stroke="black" points="287.5,-2007.87 284,-1997.87 280.5,-2007.87 287.5,-2007.87"/>
</g>
<!-- n32&#45;&gt;n30 -->
<g id="edge36" class="edge"><title>n32&#45;&gt;n30</title>
<path fill="none" stroke="black" d="M484.22,-2044.07C486.038,-2032.25 487.988,-2019.58 489.804,-2007.77"/>
<polygon fill="black" stroke="black" points="493.298,-2008.08 491.359,-1997.67 486.379,-2007.02 493.298,-2008.08"/>
</g>
</g>
</svg>
